# xmcd CD database file
#
# Track frame offsets:
#	150
#	17370
#	36532
#	61785
#	79622
#	108892
#	124170
#	141322
#	180320
#	208600
#
# Disc length: 3128 seconds
#
# Revision: 2
# Processed by: cddbd v1.5.1PL0 Copyright (c) Steve Scherf et al.
# Submitted via: CDex 1.51
#
DISCID=7d0c360a
DTITLE=Various Artist - Metallic Attack - Metallica The Ultimate Tribute
DYEAR=2004
DGENRE=Metal
TTITLE0=Whiplash
TTITLE1=Damage, Inc
TTITLE2=Enter Sandman
TTITLE3=Trapped Under Ice
TTITLE4=Nothing Else Matters
TTITLE5=Motorbreath
TTITLE6=Holier Than Thou
TTITLE7=Master Of Puppets
TTITLE8=Eye Of The Beholder
TTITLE9=Creeping Death
EXTD=YEAR: 2004
EXTT0=
EXTT1=
EXTT2=
EXTT3=
EXTT4=
EXTT5=
EXTT6=
EXTT7=
EXTT8=
EXTT9=
PLAYORDER=
